<svg width="290" height="97" viewBox="0 0 290 97" fill="none" xmlns="http://www.w3.org/2000/svg">
<path fill-rule="evenodd" clip-rule="evenodd" d="M28.6961 0.281874C28.6232 0.471762 28.4518 1.04056 28.3151 1.54583C27.0408 6.25832 27.7788 12.249 30.3941 18.4238C31.4483 20.9126 33.6882 25.2204 34.0403 25.4361C34.1002 25.4727 34.3925 25.2545 34.69 24.9513C35.2378 24.3926 36.1481 23.8906 36.613 23.8906C36.7529 23.8906 36.8674 23.8308 36.8674 23.758C36.8674 23.685 36.5384 23.1744 36.1362 22.6233C35.0314 21.1091 33.4761 18.5305 32.3909 16.4139C29.6442 11.0564 28.3916 5.87254 28.8102 1.59392C28.963 0.0334719 28.9312 -0.331092 28.6961 0.281874ZM29.976 5.93129C29.7861 6.42172 29.7683 6.41399 34.6394 7.9591C35.4903 8.22909 37.0221 8.71766 38.0433 9.04482C39.0645 9.37197 41.1533 10.0351 42.6851 10.5184C44.2169 11.0019 45.7766 11.4993 46.151 11.6239C46.5254 11.7485 48.0851 12.2464 49.6169 12.7305C51.1487 13.2144 52.8327 13.7469 53.3592 13.9136C53.8856 14.0804 54.3731 14.1822 54.4422 14.1398C54.5114 14.0975 54.5681 13.9281 54.5681 13.7633C54.5681 13.5373 54.5019 13.4639 54.2978 13.4639C53.9619 13.4639 30.8018 6.12093 30.3024 5.85609C30.106 5.75195 30.0395 5.76729 29.976 5.93129ZM32.2041 13.2913C32.0657 13.6486 32.3395 13.8703 33.2868 14.1682C33.7924 14.3272 35.1252 14.7527 36.2485 15.1138C37.3718 15.4748 39.4606 16.1405 40.8903 16.5931C45.1487 17.9415 47.2772 18.6217 48.1709 18.9196L49.0149 19.201L49.1302 18.9005C49.3048 18.4454 49.2746 18.3706 48.9164 18.3706C48.7353 18.3706 47.6074 18.061 46.4098 17.6825C38.8293 15.2875 32.7429 13.3288 32.5307 13.2162C32.334 13.112 32.2676 13.1272 32.2041 13.2913ZM56.0357 13.6668C55.6614 14.0615 55.5945 14.9863 55.8996 15.5492C56.2331 16.1645 57.1077 16.5828 57.8135 16.4647C58.4774 16.3536 59.2151 15.6666 59.3316 15.0512C59.428 14.5421 59.2349 13.9744 58.9333 13.8797C58.8131 13.842 58.5198 13.7361 58.2816 13.6446C58.0433 13.553 57.5001 13.4575 57.0746 13.4325C56.396 13.3925 56.2683 13.4213 56.0357 13.6668ZM52.0417 18.0937C52.0129 18.1223 51.7345 18.1457 51.4231 18.1457C50.9368 18.1457 50.82 18.197 50.5956 18.5092C50.0672 19.2447 50.1343 20.4385 50.7428 21.1252C52.0806 22.6352 54.5681 21.76 54.5681 19.7793C54.5681 19.0203 54.4241 18.7971 53.731 18.4822C53.1594 18.2225 52.1468 17.9896 52.0417 18.0937ZM36.5171 21.3896C36.5571 21.7361 36.615 21.7624 39.1368 22.5811C40.5552 23.0415 41.7945 23.3882 41.8909 23.3516C41.9874 23.3149 42.0662 23.1453 42.0662 22.9744C42.0662 22.7342 42.0032 22.6639 41.7877 22.6638C41.5549 22.6637 37.4274 21.4154 36.7028 21.1259C36.5102 21.049 36.4825 21.0884 36.5171 21.3896ZM232.401 21.973C231.58 22.2027 230.846 22.7443 230.411 23.442C230.102 23.9366 230.037 24.1861 229.993 25.0328C229.926 26.3579 230.248 27.2589 231.076 28.0566C231.843 28.7955 232.705 29.108 233.927 29.0909C235.789 29.0649 237.149 28.0718 237.595 26.4124C238.114 24.4802 237.314 22.7772 235.584 22.1318C234.792 21.8364 233.178 21.7559 232.401 21.973ZM44.3988 22.2143C44.0137 22.293 43.5841 22.4605 43.4442 22.5867C43.0779 22.917 42.8961 23.5732 42.9598 24.3349C43.1274 26.3378 45.8206 27.2055 47.2282 25.7102C47.817 25.0846 48.0582 23.9318 47.7386 23.271C47.5657 22.9135 46.1635 22.179 45.5321 22.1151C45.2938 22.0911 44.7838 22.1357 44.3988 22.2143ZM36.1866 25.1224C35.9824 25.1891 35.7151 25.2198 35.5927 25.1905C35.2797 25.1154 34.5577 25.8673 34.399 26.4336C34.0989 27.5041 34.2965 28.4994 34.9616 29.2695C35.7822 30.2196 36.8693 30.5514 38.0483 30.2118C39.6644 29.7462 40.5827 27.9659 39.9855 26.4565C39.9078 26.2606 39.5256 25.9396 38.9826 25.6144C38.2467 25.1738 37.9801 25.0819 37.3315 25.045C36.906 25.0207 36.3909 25.0555 36.1866 25.1224ZM27.46 28.691C27.2898 28.7589 26.9898 28.8352 26.7932 28.8604C25.5312 29.0226 24.9293 31.3412 25.7771 32.775C27.4596 35.6199 31.7924 34.5517 31.7924 31.292C31.7924 30.5568 31.5073 29.6559 31.2746 29.6559C31.2193 29.6559 30.9093 29.4706 30.5858 29.2441C30.2623 29.0175 29.8082 28.7691 29.5768 28.6921C29.0665 28.5221 27.8849 28.5215 27.46 28.691ZM40.2091 29.2523C39.6329 30.0211 38.8493 30.5947 38.2349 30.6976C37.9594 30.7437 37.7339 30.8345 37.7339 30.8993C37.7339 30.964 38.0728 31.5802 38.4871 32.2685C40.651 35.8638 42.6945 40.7919 43.482 44.3146C44.2625 47.8056 44.1949 51.5203 43.3018 54.2153C41.9852 58.1885 38.507 62.176 33.5253 65.4236C30.9863 67.0787 27.2558 69.0526 25.7843 69.5193C25.0839 69.7416 25.0426 69.8208 25.3888 70.2789C25.988 71.0718 26.1418 71.507 26.1513 72.4356C26.1591 73.2031 26.1905 73.3247 26.3809 73.3249C26.6071 73.3253 28.1983 72.7514 29.193 72.3106C29.4993 72.1748 30.1956 71.8753 30.7402 71.6449C33.0895 70.651 36.6937 68.5833 38.8067 67.0168C40.2333 65.9593 42.174 64.241 43.0691 63.2428C43.8434 62.3796 44.0467 62.2516 44.0467 62.6275C44.0467 62.7482 44.2194 63.3969 44.4303 64.0689C46.0959 69.3734 50.376 74.207 55.611 76.6956C58.8053 78.2141 61.7962 78.8453 65.7971 78.8453C68.799 78.8453 70.8585 78.5287 73.4575 77.6677C76.8949 76.529 80.3829 74.2334 82.5431 71.6879C83.4847 70.5785 84.647 68.9306 84.647 68.7052C84.647 68.6176 84.4938 68.5148 84.3066 68.4767C83.7974 68.3729 80.5451 67.3263 80.2035 67.1561C79.9269 67.0185 79.8679 67.0546 79.3406 67.6829C78.3384 68.8768 76.5629 70.5478 75.6045 71.1991C73.7521 72.4579 71.5363 73.3853 69.1743 73.8902C67.6642 74.213 63.6342 74.2117 62.0569 73.8879C60.754 73.6202 58.7778 72.9626 57.7858 72.4664C54.2557 70.7004 51.3274 67.5211 49.849 63.8491C49.3057 62.4995 48.7504 60.113 48.7504 59.1266V58.6053H67.6757C84.8189 58.6053 86.608 58.587 86.6761 58.4112C86.9094 57.8088 86.6552 53.9836 86.2483 51.9718C84.658 44.1105 78.481 37.8049 70.4121 35.8058C67.4257 35.066 62.4877 35.0931 59.3337 35.8669C57.4197 36.3365 54.9292 37.3956 53.3089 38.4289C51.5347 39.5605 49.2885 41.5175 48.419 42.6893C48.1813 43.0097 47.9368 43.2719 47.8758 43.2719C47.8147 43.2719 47.7317 43.1202 47.6912 42.9346C47.3553 41.3967 46.2084 38.2758 45.2458 36.2799C44.1018 33.9082 41.8699 30.1714 40.8683 28.9508L40.642 28.675L40.2091 29.2523ZM32.539 32.9604C32.4685 33.0913 32.4525 33.2227 32.5037 33.2524C32.7421 33.3907 36.6024 34.5626 36.8196 34.5626C36.9548 34.5626 37.1323 34.4964 37.214 34.4154C37.4628 34.1688 37.3823 33.9493 37.0434 33.9493C36.8679 33.9493 35.8749 33.6733 34.8369 33.3359C33.799 32.9986 32.8862 32.7226 32.8086 32.7226C32.731 32.7226 32.6097 32.8297 32.539 32.9604ZM19.1048 34.0141C18.8325 34.1113 18.5057 34.1918 18.3785 34.1927C17.953 34.1962 17.2249 35.0676 16.9963 35.8469C16.3088 38.1903 18.0116 40.4481 20.4664 40.4481C21.924 40.4481 23.1198 39.7005 23.7724 38.3808C24.2909 37.3326 24.0557 35.322 23.3867 35.0829C23.2783 35.0442 22.9863 34.8559 22.738 34.6645C21.6811 33.8499 20.2716 33.5976 19.1048 34.0141ZM155.697 35.3048C148.683 35.7284 142.621 39.3781 138.899 45.4186C137.561 47.5903 136.71 49.8932 136.181 52.7786C135.857 54.547 135.858 59.376 136.183 61.12C137.019 65.6089 138.91 69.2692 141.972 72.3258C144.956 75.3045 148.111 77.1178 152.108 78.151C155.546 79.04 160.124 79.0965 163.756 78.2949C167.918 77.3765 172.139 74.9355 174.818 71.8982C175.791 70.7964 177.113 68.9506 177.112 68.697C177.112 68.6139 176.958 68.5125 176.771 68.4715C176.246 68.3568 172.992 67.3158 172.75 67.1852C172.37 66.9805 172.234 67.0632 171.603 67.8795C169.27 70.9003 165.78 72.9957 161.577 73.8993C160.146 74.2069 156.053 74.2032 154.583 73.8931C151.66 73.2762 149.474 72.259 147.154 70.4363C144.531 68.3758 142.342 64.8626 141.579 61.488C141.38 60.6066 141.126 58.7343 141.196 58.6645C141.229 58.6319 149.73 58.6053 160.088 58.6053C174.569 58.6053 178.953 58.5713 179.067 58.4581C179.167 58.3597 179.215 57.8201 179.215 56.8328C179.212 52.1053 177.849 47.6868 175.295 44.1189C174.241 42.6456 171.696 40.1367 170.18 39.0755C168.117 37.6315 165.61 36.4942 163.071 35.8505C161.204 35.3773 158.19 35.1543 155.697 35.3048ZM265.801 35.2947C262.207 35.6176 258.786 36.8459 255.96 38.8282C254.457 39.8823 252.053 42.2637 250.977 43.7626C249.578 45.7135 248.304 48.4741 247.742 50.7731C247.11 53.3556 246.871 57.0881 247.161 59.8396C247.856 66.4325 251.154 71.9755 256.51 75.551C258.867 77.1247 261.374 78.0978 264.377 78.604C266.194 78.9103 269.488 78.9326 271.335 78.6513C276.208 77.9086 280.888 75.3124 283.873 71.6962C284.349 71.1189 284.747 70.656 284.757 70.6672C284.767 70.6786 284.795 72.3123 284.819 74.2978C284.853 77.0798 284.901 77.9448 285.027 78.0698C285.15 78.1921 285.733 78.232 287.399 78.232C288.614 78.232 289.696 78.1985 289.804 78.1575C289.982 78.09 290 76.112 290 57.0025V35.922L287.555 35.8863C286.211 35.8667 285.069 35.8676 285.018 35.8885C284.967 35.9093 284.925 37.6067 284.925 39.6605C284.925 41.7282 284.876 43.3946 284.816 43.3946C284.756 43.3946 284.467 43.0792 284.173 42.6937C281.681 39.4226 278.122 37.0585 273.97 35.9157C272.061 35.3902 268.094 35.0887 265.801 35.2947ZM90.0932 35.9464C90.0933 36.0524 95.1978 47.7371 96.1811 49.8821C96.3168 50.1781 96.892 51.4753 97.4594 52.7647C98.0268 54.0542 99.0292 56.3237 99.6871 57.8079C100.345 59.2922 101.347 61.5617 101.914 62.8512C102.481 64.1406 103.066 65.4592 103.214 65.7813C103.362 66.1034 103.948 67.422 104.515 68.7114C105.082 70.0009 106.086 72.2704 106.746 73.7546C107.405 75.2389 108.082 76.7845 108.25 77.1893C108.418 77.5941 108.645 77.9944 108.755 78.0786C108.897 78.1872 109.557 78.232 111.017 78.232C113.187 78.232 113.305 78.2031 113.517 77.6186C113.572 77.4681 115.538 73.0288 116.152 71.6693C116.625 70.6233 118.777 65.7715 119.553 64.005C120.04 62.893 120.541 61.7614 120.665 61.4903C120.873 61.0358 121.958 58.5989 124.161 53.6373C124.641 52.5578 125.659 50.267 126.424 48.5466C130.439 39.5149 131.931 36.1124 131.931 35.9871C131.931 35.9458 130.744 35.9119 129.293 35.9119H126.655L126.43 36.3719C126.307 36.625 125.818 37.7151 125.344 38.7946C124.87 39.8741 124.381 40.9781 124.258 41.2479C124.136 41.5178 123.89 42.0823 123.712 42.5023C123.535 42.9223 123.242 43.5847 123.062 43.9743C122.882 44.3639 122.473 45.2898 122.152 46.0319C121.831 46.7741 120.635 49.5065 119.493 52.1039C118.351 54.7014 117.14 57.4614 116.802 58.2373C116.465 59.0131 116.087 59.8688 115.964 60.1386C115.482 61.1905 111.939 69.269 111.56 70.1795C111.34 70.7096 111.105 71.1976 111.037 71.2644C110.957 71.3441 110.824 71.1456 110.65 70.6829C110.504 70.2964 110.274 69.74 110.139 69.4462C110.004 69.1524 108.775 66.3586 107.409 63.2374C106.042 60.1163 104.81 57.3142 104.671 57.0106C104.453 56.5349 100.246 46.9572 98.5023 42.9653C96.4798 38.3354 95.5133 36.2019 95.3811 36.0748C95.2087 35.9092 90.0931 35.785 90.0932 35.9464ZM183.672 35.8866C183.672 35.9373 187.075 40.3415 191.085 45.4799C192.954 47.875 194.848 50.3038 195.293 50.8773C195.738 51.4507 196.875 52.9067 197.819 54.1126C198.763 55.3185 199.566 56.3837 199.603 56.4796C199.642 56.5813 199.189 57.2778 198.515 58.1509C197.02 60.0871 185.36 75.0336 184.298 76.3748C183.076 77.9184 183.02 77.9949 183.07 78.0441C183.095 78.0692 184.432 78.1295 186.042 78.1784L188.968 78.2671L190.188 76.7379C190.859 75.8968 193.943 71.9729 197.04 68.018C200.138 64.0631 202.738 60.8241 202.817 60.8203C202.897 60.8165 205.897 64.553 209.484 69.124C213.072 73.6949 216.176 77.6223 216.384 77.8518L216.762 78.2689L219.677 78.1834C221.28 78.1364 222.618 78.072 222.65 78.0403C222.682 78.0086 222.601 77.8502 222.469 77.6883C222.039 77.1597 218.637 72.8302 216.63 70.2586C215.551 68.8756 213.052 65.674 211.076 63.144C206.907 57.8053 206.076 56.7162 206.076 56.5906C206.076 56.5062 209.857 51.5988 215.486 44.3759C218.803 40.1204 221.92 36.0099 221.92 35.8925C221.92 35.8156 221.804 35.7915 221.642 35.8346C221.489 35.8752 220.131 35.9093 218.626 35.9102L215.888 35.9119L213.725 38.6413C212.536 40.1423 211.178 41.8611 210.707 42.4607C210.237 43.0603 209.406 44.1171 208.861 44.8092C208.317 45.5013 206.731 47.5168 205.338 49.2881L202.804 52.5087L202.553 52.1717C201.983 51.4089 190.508 36.888 190.109 36.4247L189.675 35.922L186.674 35.8863C185.023 35.8667 183.672 35.8668 183.672 35.8866ZM231.371 35.9342C231.313 36.0232 231.251 45.5075 231.233 57.0106C231.202 76.606 231.213 77.935 231.411 78.0786C231.633 78.2393 235.811 78.308 236.207 78.1575C236.384 78.09 236.403 76.1115 236.403 56.9975V35.9119H234.123C232.869 35.9119 231.761 35.8805 231.66 35.8422C231.559 35.8039 231.429 35.8453 231.371 35.9342ZM24.7558 38.6409C24.4556 38.9384 24.6118 39.1616 25.2638 39.367C25.6208 39.4793 27.0825 39.9397 28.5122 40.3899C29.9419 40.8401 31.5015 41.3364 31.9781 41.4926C32.4546 41.649 34.0143 42.1465 35.4439 42.5981C36.8736 43.0497 38.622 43.6068 39.3293 43.8362C40.7615 44.3006 41.138 44.3444 41.2484 44.0592C41.3764 43.7285 41.3364 43.6742 40.9159 43.6064C40.4796 43.5363 25.4277 38.7751 25.0962 38.6024C24.9764 38.5399 24.8423 38.5551 24.7558 38.6409ZM62.8795 40.028C59.038 40.5171 56.1538 41.9188 53.4496 44.611C51.0248 47.0248 49.6348 49.6578 48.9246 53.1824C48.8118 53.7419 48.7589 54.2387 48.8072 54.2864C48.9498 54.4277 81.1503 54.3923 81.2877 54.2506C81.4066 54.1278 81.258 53.1504 80.9424 51.9813C79.4599 46.4885 75.1101 42.0956 69.5818 40.508C68.4752 40.1902 65.8411 39.8304 64.7801 39.8522C64.4397 39.8591 63.5845 39.9382 62.8795 40.028ZM155.388 40.0263C153.7 40.2464 152.614 40.5114 151.337 41.0156C147.269 42.6212 143.941 45.9263 142.334 49.9573C141.983 50.8362 141.42 52.8711 141.278 53.7737C141.201 54.2648 141.209 54.2802 141.594 54.3564C142.208 54.4782 172.78 54.4428 173.315 54.3198C173.576 54.2598 173.81 54.1898 173.836 54.1641C173.862 54.1385 173.778 53.623 173.649 53.0188C172.969 49.8306 171.508 47.0821 169.331 44.8906C167.5 43.0489 165.688 41.8338 163.557 41.0201C162.037 40.4394 161.123 40.2204 159.363 40.0146C157.599 39.8084 157.046 39.81 155.388 40.0263ZM266.42 40.3488C263.708 40.6541 261.051 41.7261 258.867 43.3964C257.86 44.166 255.951 46.1805 255.246 47.2166C253.681 49.5155 252.789 51.9755 252.501 54.7849C252.011 59.5626 252.972 63.6076 255.451 67.192C256.197 68.2706 258.547 70.5694 259.612 71.2624C261.329 72.3803 263.024 73.0981 264.996 73.5433C266.191 73.8129 270.458 73.8414 271.68 73.5878C273 73.3144 275.022 72.6056 276.013 72.0693C278.213 70.8786 280.386 68.9219 281.752 66.9003C283.779 63.9023 284.678 60.8317 284.677 56.9195C284.675 52.4646 283.329 48.7778 280.542 45.5919C277.017 41.5618 272.044 39.7157 266.42 40.3488ZM13.5231 42.0429C13.2444 42.1009 12.8059 42.2358 12.5487 42.3422C12.2914 42.4487 11.9828 42.5359 11.8629 42.5359C11.5662 42.5359 10.7794 43.4227 10.4615 44.1156C10.2641 44.5461 10.2004 44.9343 10.197 45.7278C10.1931 46.6646 10.2344 46.8574 10.5961 47.5853C12.2166 50.8475 16.8509 50.7927 18.3817 47.4934C18.7847 46.6247 18.8769 45.5754 18.6254 44.718C18.4226 44.0268 18.3135 43.8904 17.31 43.0741C16.213 42.1818 14.7574 41.7854 13.5231 42.0429ZM19.3818 47.5157C19.3316 47.5654 19.2905 47.6962 19.2905 47.8061C19.2905 48.0157 19.2576 48.0042 25.232 49.8948C26.7638 50.3796 28.8526 51.0439 29.8738 51.371C30.895 51.6982 32.4546 52.1956 33.3396 52.4762C34.2247 52.757 35.7843 53.2539 36.8055 53.5806C37.8267 53.9073 39.1064 54.3159 39.649 54.4886C40.7878 54.8509 41.2655 54.8842 41.3722 54.6085C41.5021 54.2728 41.4592 54.2231 40.9831 54.1593C40.7279 54.125 35.8957 52.6202 30.2451 50.8153C24.5945 49.0104 19.8593 47.5092 19.7222 47.4794C19.5852 47.4496 19.4321 47.4659 19.3818 47.5157ZM12.6682 54.0027C12.3959 54.1033 12.067 54.1865 11.9373 54.1874C11.5388 54.1905 10.7904 55.0914 10.5744 55.8277C10.3234 56.6832 10.3272 57.1352 10.5922 57.9684C10.8748 58.8569 11.7097 59.778 12.5771 60.1581C14.9953 61.218 17.8432 59.3147 17.6538 56.7653C17.5981 56.0137 17.2517 55.1841 16.95 55.0801C16.8417 55.0425 16.6137 54.887 16.4435 54.7343C16.2733 54.5816 15.8834 54.3278 15.577 54.1704C14.8774 53.8108 13.4158 53.7266 12.6682 54.0027ZM18.4951 57.9511C18.3723 58.2682 18.4707 58.3176 20.4045 58.91C20.9832 59.0874 22.2922 59.4999 23.3134 59.8268C24.3346 60.1537 25.8664 60.6423 26.7174 60.9125C27.5683 61.1826 29.597 61.8304 31.2255 62.352C34.2732 63.3282 34.5775 63.3711 34.5775 62.8239C34.5775 62.6567 34.4739 62.581 34.2061 62.5527C34.0019 62.5311 30.4637 61.441 26.3435 60.13C22.2233 58.8192 18.7898 57.7466 18.7133 57.7466C18.6368 57.7466 18.5386 57.8386 18.4951 57.9511ZM16.7033 63.4C16.5398 63.4647 16.2613 63.5261 16.0844 63.5362C15.2956 63.5816 14.5938 64.7082 14.5895 65.936C14.5852 67.1412 15.1035 68.0303 16.2356 68.7598C16.696 69.0566 16.8687 69.0932 17.8051 69.0922C18.9837 69.0911 19.3692 68.9457 20.091 68.2306C20.6875 67.6393 20.9155 67.1532 20.9928 66.3073C21.0988 65.1491 20.8843 64.7035 19.9076 64.0543C19.4545 63.753 18.8939 63.4525 18.6618 63.3865C18.1351 63.2368 17.097 63.2439 16.7033 63.4ZM22.0412 66.8458C21.7191 67.165 21.928 67.3088 23.3443 67.7424C24.1443 67.9872 24.9467 68.2441 25.1274 68.3131C25.6142 68.4992 26.0299 68.404 26.0742 68.0961C26.1051 67.8807 26.0295 67.8199 25.6409 67.7486C25.2668 67.6798 22.9033 66.965 22.3197 66.7441C22.2496 66.7176 22.1243 66.7634 22.0412 66.8458ZM21.4566 70.7493C21.3205 70.8073 21.0656 70.8586 20.8902 70.8634C19.914 70.8898 19.3378 72.7878 19.9194 74.0613C20.4525 75.2286 21.3018 75.7786 22.5707 75.7786C23.8099 75.7786 24.8288 75.1245 25.2876 74.0346C25.69 73.0784 25.4393 71.8008 24.7806 71.4511C23.2616 70.6448 23.2101 70.6266 22.4569 70.6352C22.0429 70.64 21.5928 70.6913 21.4566 70.7493ZM18.6181 72.3304C18.5807 72.3903 18.3988 72.4771 18.2137 72.5232C18.0288 72.5692 17.0952 72.9958 16.1393 73.4714C11.9116 75.5743 8.63588 77.7969 5.89066 80.4251C3.10175 83.0954 1.07013 86.1293 0.225323 88.8855C0.0783948 89.365 -0.0212492 89.8185 0.00387838 89.8933C0.0291297 89.9682 0.277192 89.6033 0.555205 89.0825C1.44222 87.4203 2.5711 85.959 4.24623 84.304C6.62382 81.9549 9.27596 80.1056 12.8539 78.302C14.6654 77.3889 17.4315 76.2066 19.1976 75.5907C19.7253 75.4067 20.1569 75.2136 20.1569 75.1617C20.1569 75.1097 19.962 74.7803 19.7237 74.4293C19.4854 74.0784 19.2905 73.7167 19.2905 73.6257C19.2905 73.5346 19.2302 73.1813 19.1564 72.8406C19.0319 72.2651 18.7975 72.0428 18.6181 72.3304ZM18.0527 77.6519C18.0527 78.0691 18.1736 78.1399 19.6618 78.5942C20.3767 78.8124 21.5672 79.185 22.3075 79.422C23.7368 79.8798 23.8641 79.8661 23.8685 79.2555C23.8699 79.064 23.8105 79.006 23.6538 79.0456C23.4794 79.0897 19.1052 77.7825 18.2693 77.4367C18.0969 77.3653 18.0527 77.4092 18.0527 77.6519ZM26.6992 78.5347C26.6552 78.5791 26.3581 78.6367 26.0393 78.6623C25.1141 78.737 24.7369 79.2339 24.7369 80.3774C24.7369 81.8365 25.6786 82.7707 27.1493 82.7707C28.465 82.7707 29.4147 81.9404 29.5365 80.6837C29.6242 79.7787 29.4231 79.4287 28.5564 78.9784C27.8351 78.6038 26.8612 78.3711 26.6992 78.5347ZM9.82951 81.4081C9.62342 81.7385 10.0311 82.0178 11.273 82.3969C11.9723 82.6102 12.6837 82.8337 12.8539 82.8933C13.0241 82.9531 14.4166 83.3958 15.9484 83.877C17.4802 84.3582 19.0398 84.8538 19.4143 84.978C19.7887 85.1023 21.5154 85.6528 23.2515 86.2014C24.9875 86.75 26.5348 87.2508 26.6899 87.3144C26.9301 87.4127 26.9897 87.3835 27.0922 87.1162C27.274 86.6424 27.2439 86.5733 26.8555 86.5733C26.6592 86.5733 22.8576 85.4097 18.4074 83.9876C13.9574 82.5654 10.2251 81.3738 10.1137 81.3396C10.0022 81.3053 9.87432 81.3362 9.82951 81.4081ZM192.153 84.5184C192.111 84.8053 192.094 86.2544 192.114 87.7387L192.151 90.4373H192.646H193.141L193.176 89.061L193.211 87.6846L194.785 87.6503L196.36 87.616L196.399 87.2787L196.438 86.9413L194.913 86.9395C194.075 86.9384 193.314 86.8904 193.222 86.8328C193.093 86.7516 193.075 86.5178 193.144 85.7921L193.232 84.856H195.074H196.917V84.4747C196.917 84.1417 196.881 84.1017 196.638 84.1589C196.023 84.3036 192.77 84.2925 192.499 84.1446C192.243 84.0049 192.224 84.0253 192.153 84.5184ZM209.518 87.156C209.492 88.8932 209.491 90.3561 209.514 90.4067C209.538 90.4572 210.64 90.4987 211.963 90.4987H214.37V90.1307V89.7627H212.598C211.364 89.7627 210.771 89.7162 210.64 89.6093C210.492 89.4881 210.468 89.2763 210.524 88.5973L210.594 87.7387L212.14 87.7039C212.989 87.6849 213.733 87.6215 213.792 87.563C213.851 87.5045 213.862 87.3407 213.817 87.199C213.739 86.9555 213.65 86.9413 212.21 86.9413C211.14 86.9413 210.65 86.8957 210.563 86.788C210.49 86.6971 210.471 86.2847 210.517 85.776L210.594 84.9173L212.451 84.856L214.308 84.7947L214.274 84.4956C214.256 84.3311 214.228 84.1909 214.212 84.1841C214.197 84.1773 213.293 84.2052 212.204 84.2462C210.676 84.3037 210.16 84.2837 209.949 84.159C209.798 84.0701 209.65 83.9973 209.619 83.9973C209.589 83.9973 209.543 85.4188 209.518 87.156ZM215.681 84.1016C215.633 84.1792 215.571 89.1223 215.603 90.3453C215.609 90.5426 218.474 90.5593 219.246 90.3665C220.01 90.1758 220.919 89.4468 221.294 88.7231C221.549 88.2318 221.609 87.9446 221.603 87.2511C221.593 86.1726 221.38 85.7516 220.518 85.1066C219.563 84.3914 218.989 84.2283 217.514 84.2516C216.788 84.2631 216.156 84.2137 216.005 84.134C215.863 84.0585 215.717 84.0438 215.681 84.1016ZM222.974 84.5206C222.932 84.8063 222.915 86.2544 222.936 87.7387L222.972 90.4373L223.499 90.475L224.025 90.5128L224.016 87.531C224.008 84.6687 223.939 83.8845 223.725 84.2268C223.652 84.3446 223.565 84.3364 223.34 84.1899C223.053 84.0036 223.048 84.0079 222.974 84.5206ZM239.966 87.0947C239.946 88.7983 239.95 90.2611 239.975 90.3453C240.008 90.4606 240.569 90.4987 242.241 90.4987H244.464L244.425 90.1156L244.387 89.7324L242.896 89.7535C242.076 89.7651 241.311 89.7384 241.194 89.6942C241.004 89.6218 240.983 89.3555 240.983 87.0609C240.983 84.3976 240.942 84.0219 240.675 84.2411C240.565 84.3316 240.476 84.3148 240.365 84.1828C240.28 84.0808 240.163 83.9973 240.105 83.9973C240.048 83.9973 239.985 85.3911 239.966 87.0947ZM261.751 87.1373C261.732 88.8644 261.75 90.331 261.79 90.3965C261.831 90.462 262.079 90.498 262.341 90.4765L262.817 90.4373L262.782 87.3724C262.763 85.6867 262.724 84.2705 262.695 84.2252C262.667 84.18 262.539 84.1703 262.411 84.2035C262.282 84.2368 262.14 84.204 262.094 84.1307C261.844 83.7298 261.783 84.2634 261.751 87.1373ZM264.32 85.4918C264.274 86.3227 264.254 87.7755 264.276 88.72L264.315 90.4373L266.768 90.4706L269.221 90.5039L269.182 90.1136L269.143 89.7233L267.396 89.751C265.272 89.7845 265.28 89.7894 265.368 88.5886L265.429 87.7387L266.972 87.7041C267.86 87.6841 268.548 87.6156 268.593 87.5428C268.637 87.4731 268.649 87.2955 268.621 87.148C268.57 86.8878 268.527 86.8812 267.123 86.92C265.28 86.971 265.241 86.9459 265.35 85.776L265.429 84.9173L267.286 84.856C268.666 84.8105 269.14 84.7553 269.13 84.6413C269.084 84.0623 269.216 84.0934 266.946 84.1287C265.771 84.147 264.719 84.1212 264.607 84.0714C264.426 83.9912 264.394 84.1514 264.32 85.4918ZM270.384 86.236C270.337 87.4672 270.318 88.9163 270.34 89.456L270.381 90.4373L270.907 90.475L271.433 90.5128V88.2363C271.433 86.9844 271.475 85.9624 271.526 85.9653C271.577 85.9682 272.417 86.9894 273.392 88.2346C275.157 90.4882 275.167 90.4987 275.651 90.4987H276.137L276.135 87.4627C276.134 85.7929 276.092 84.3715 276.042 84.304C275.992 84.2365 275.867 84.1741 275.765 84.1653C275.663 84.1565 275.496 84.1289 275.394 84.1039C275.235 84.0652 275.203 84.3799 275.174 86.2973C275.148 88.0175 275.104 88.536 274.982 88.536C274.895 88.536 274.11 87.6252 273.237 86.512C272.263 85.2704 271.567 84.488 271.434 84.488C271.316 84.488 271.077 84.3776 270.904 84.2427C270.731 84.1077 270.562 83.9973 270.529 83.9973C270.496 83.9973 270.431 85.0048 270.384 86.236ZM285.117 87.1096C285.067 88.8321 285.063 90.2993 285.107 90.3701C285.21 90.536 289.832 90.547 289.935 90.3816C289.975 90.3172 289.976 90.1379 289.936 89.983C289.867 89.7064 289.84 89.7021 288.433 89.7429C287.645 89.7657 286.812 89.7495 286.581 89.7067L286.163 89.6288V88.8471C286.163 87.6248 286.088 87.6773 287.84 87.6773C289.436 87.6773 289.582 87.6291 289.459 87.1432C289.391 86.8779 289.348 86.87 288.213 86.9192C287.567 86.9473 286.839 86.9332 286.595 86.888L286.153 86.8057L286.189 85.8615L286.225 84.9173L288.081 84.856C289.461 84.8105 289.935 84.7553 289.926 84.6413C289.879 84.0628 290.005 84.0936 287.803 84.1231C286.662 84.1383 285.612 84.1118 285.469 84.0642C285.209 83.9783 285.207 83.9963 285.117 87.1096ZM143.171 87.2216C143.145 88.9228 143.143 90.3561 143.167 90.4067C143.191 90.4572 144.261 90.4987 145.544 90.4987C147.914 90.4987 148.088 90.4652 147.93 90.0387C147.888 89.9264 147.429 89.8853 146.221 89.8853C144.309 89.8853 143.878 89.7681 143.991 89.2785C144.031 89.1063 144.098 88.6771 144.141 88.3249L144.22 87.6844L145.781 87.6502C147.331 87.6162 147.342 87.6139 147.342 87.3256V87.0352L145.857 87.0553C143.902 87.0816 143.883 87.0684 144.081 85.806L144.23 84.856H146.065H147.899V84.5493V84.2427L146.321 84.2434C145.453 84.2438 144.53 84.3026 144.27 84.3743C143.89 84.4788 143.739 84.4675 143.507 84.3166L143.218 84.1287L143.171 87.2216ZM148.955 84.5026C149.001 84.7131 149.465 86.1344 149.986 87.6613L150.932 90.4373H151.364C151.857 90.4373 151.794 90.5672 152.731 87.5853C153.225 86.0119 153.385 85.7237 153.514 86.1747C153.649 86.6477 154.612 89.7275 154.744 90.1058C154.871 90.4704 154.927 90.5066 155.312 90.4738L155.739 90.4373L156.772 87.3827C157.34 85.7026 157.781 84.3044 157.752 84.2754C157.723 84.2465 157.576 84.2882 157.425 84.368C157.212 84.4812 157.13 84.4798 157.057 84.3614C156.987 84.25 156.929 84.2712 156.839 84.4408C156.624 84.8464 155.697 87.8104 155.697 88.0938C155.697 88.2437 155.614 88.4735 155.512 88.6046C155.329 88.839 155.322 88.8385 155.095 88.5738C154.968 88.4258 154.829 88.0382 154.785 87.7123C154.742 87.3865 154.512 86.569 154.275 85.8958C154.037 85.2228 153.843 84.66 153.842 84.6451C153.841 84.6304 153.755 84.6509 153.65 84.6908C153.546 84.7305 153.347 84.6619 153.21 84.5384C152.995 84.3458 152.943 84.3393 152.844 84.4929C152.689 84.7354 151.883 87.2734 151.792 87.8038C151.64 88.7009 151.606 88.7813 151.383 88.7813C151.137 88.7813 150.87 88.3152 150.87 87.8863C150.87 87.4201 149.869 84.6106 149.703 84.6106C149.617 84.6106 149.446 84.5003 149.323 84.3653C148.998 84.0101 148.857 84.0627 148.955 84.5026ZM161.737 87.2173C161.707 88.9209 161.704 90.3561 161.73 90.4067C161.804 90.5498 166.439 90.5191 166.529 90.3749C166.571 90.3068 166.575 90.1551 166.538 90.0376C166.477 89.8464 166.298 89.8276 164.828 89.8578C163.125 89.8929 162.515 89.7625 162.612 89.3846C162.636 89.2889 162.686 88.8672 162.721 88.4476L162.786 87.6844L164.348 87.6502L165.909 87.616V87.3168V87.0175L164.61 87.0441C163.895 87.0588 163.143 87.0229 162.939 86.9644C162.534 86.8486 162.537 86.8664 162.71 85.6533L162.816 84.9173L164.641 84.8833L166.466 84.8495V84.5293V84.2092L164.296 84.2683C163.102 84.3009 162.096 84.2808 162.06 84.2238C161.845 83.8793 161.785 84.441 161.737 87.2173ZM167.801 87.1875C167.782 88.8748 167.785 90.31 167.807 90.3768C167.83 90.4438 168.065 90.4987 168.329 90.4987H168.809L168.845 89.3027L168.88 88.1067H169.747H170.613L171.343 89.3027L172.074 90.4987H172.612C173.265 90.4987 173.305 90.3224 172.768 89.8163C172.34 89.4139 171.984 88.7876 171.861 88.2218C171.792 87.9023 171.827 87.8213 172.098 87.6776C172.469 87.481 172.844 86.9146 172.952 86.3893C173.087 85.7323 172.88 85.3405 172.114 84.8043L171.399 84.304H169.81C168.935 84.304 168.178 84.2625 168.127 84.212C168.076 84.1614 167.99 84.12 167.935 84.12C167.881 84.12 167.82 85.5004 167.801 87.1875ZM186.395 84.315C185.187 84.7011 184.749 85.0026 184.386 85.698C183.925 86.5825 183.905 87.8076 184.337 88.7269C184.92 89.9678 186.246 90.7062 187.685 90.5918C189.853 90.4192 191.275 88.4493 190.685 86.4357C190.519 85.8716 190.375 85.6785 189.711 85.1276C188.567 84.1775 187.581 83.9361 186.395 84.315ZM200.878 87.3093V90.4987H201.373C201.683 90.4987 201.87 90.4415 201.873 90.3453C201.876 90.2611 201.874 89.2896 201.868 88.1866C201.861 86.813 201.899 86.1951 201.99 86.2251C202.062 86.2491 202.553 87.0412 203.079 87.9851C203.899 89.4545 204.083 89.7067 204.362 89.7389C204.755 89.7841 204.864 89.6424 205.963 87.6481C206.4 86.8563 206.799 86.2076 206.85 86.2068C206.901 86.2061 206.943 87.1745 206.943 88.359V90.5128L207.469 90.475L207.995 90.4373L207.961 87.3776C207.942 85.6949 207.906 84.2972 207.88 84.2719C207.854 84.2465 207.721 84.2952 207.584 84.3802C207.383 84.5045 207.297 84.5041 207.144 84.3781C207.039 84.292 206.901 84.2538 206.837 84.2933C206.653 84.4057 204.867 87.5759 204.771 87.9599C204.613 88.5895 204.229 88.3444 203.656 87.248C202.78 85.5717 202.178 84.6749 201.902 84.6344C201.761 84.6138 201.548 84.4896 201.428 84.3584C200.906 83.7861 200.878 83.9365 200.878 87.3093ZM227.924 84.1769C227.856 84.2058 227.563 84.2899 227.272 84.3639C226.629 84.5277 225.957 85.0908 225.601 85.7643C225.227 86.4725 225.224 88.0198 225.596 88.72C226.714 90.8232 229.622 91.2651 231.198 89.5711C231.72 89.0091 231.757 88.6959 231.283 88.8407C231.137 88.8851 230.896 88.9398 230.747 88.9624C230.598 88.9849 230.244 89.1881 229.961 89.4137C229.502 89.7793 229.363 89.8239 228.685 89.8234C227.695 89.8225 227.172 89.5265 226.76 88.7327C226.111 87.4829 226.358 85.9929 227.336 85.2532C227.96 84.7817 229.123 84.7153 229.833 85.1109C230.112 85.2661 230.424 85.5208 230.527 85.6769C230.709 85.951 230.731 85.9542 231.17 85.7724C231.42 85.6689 231.649 85.5596 231.679 85.5297C231.803 85.4075 231.374 85.0789 230.54 84.6559C229.85 84.3061 229.481 84.199 228.852 84.1664C228.41 84.1433 227.992 84.1481 227.924 84.1769ZM234.569 85.5C233.55 87.7499 232.443 90.3074 232.442 90.4137C232.442 90.4682 232.675 90.4958 232.96 90.475C233.445 90.4398 233.5 90.3972 233.796 89.824L234.113 89.2107L235.668 89.1766L237.223 89.1423L237.525 89.7899C237.815 90.4137 237.846 90.4387 238.369 90.4758C239.028 90.5226 239.064 90.7045 237.89 88.1067C236.23 84.4339 236.2 84.3767 235.94 84.4439C235.811 84.4776 235.632 84.4184 235.543 84.3126C235.455 84.2066 235.34 84.12 235.288 84.12C235.237 84.12 234.913 84.7411 234.569 85.5ZM249.386 84.2062C249.208 84.2335 248.901 84.422 248.705 84.6253C248.394 84.9468 248.348 85.0882 248.348 85.7147C248.348 86.7095 248.666 87.0227 250.212 87.5507C251.433 87.9678 251.999 88.3044 251.999 88.6123C251.999 89.0052 251.595 89.5436 251.166 89.721C250.604 89.9537 250.074 89.8607 249.265 89.388C248.16 88.7428 247.785 89.0207 248.629 89.8576C250.258 91.4717 253.426 90.3717 253.038 88.3266C252.927 87.7388 252.914 87.7306 250.851 86.9747C249.701 86.5532 249.357 86.2551 249.373 85.6933C249.389 85.1315 249.766 84.856 250.518 84.856C250.978 84.856 251.2 84.9282 251.493 85.1726C251.792 85.422 251.952 85.4721 252.244 85.4085C253.025 85.2387 252.848 84.8508 251.802 84.4358C251.039 84.1329 250.315 84.064 249.386 84.2062ZM255.91 84.3592C254.728 84.8306 254.081 85.7943 254.067 87.1014C254.055 88.18 254.27 88.7886 254.915 89.499C256.104 90.8099 258.228 90.9863 259.633 89.8909C259.979 89.6207 260.414 89.0514 260.415 88.8658C260.417 88.6345 259.226 88.9506 258.84 89.2838C257.84 90.147 256.355 89.9809 255.651 88.927C254.948 87.8742 254.984 86.4945 255.736 85.6455C256.257 85.0577 256.695 84.856 257.452 84.856C258.197 84.856 258.776 85.0978 259.223 85.5944C259.511 85.9148 259.579 85.937 259.918 85.8201C260.678 85.5575 260.542 85.262 259.386 84.6591C258.611 84.2553 258.371 84.1911 257.507 84.1564C256.74 84.1257 256.381 84.1713 255.91 84.3592ZM279.368 84.3045C278.219 84.6595 277.435 85.8587 277.443 87.248C277.448 88.2501 277.68 88.8445 278.333 89.5373C279.536 90.8113 281.643 90.9701 283.027 89.8909C283.374 89.6207 283.809 89.0514 283.81 88.8658C283.812 88.6633 282.63 88.9375 282.326 89.21C281.833 89.6512 281.455 89.7969 280.785 89.803C279.968 89.8106 279.428 89.5182 278.987 88.8284C278.323 87.7915 278.382 86.4904 279.131 85.6455C279.652 85.0577 280.09 84.856 280.846 84.856C281.591 84.856 282.171 85.0978 282.618 85.5944C282.906 85.9148 282.974 85.937 283.312 85.8201C283.519 85.7489 283.721 85.6373 283.761 85.5722C283.891 85.3641 283.402 84.9561 282.515 84.5321C281.777 84.18 281.525 84.1212 280.782 84.1282C280.303 84.1327 279.667 84.212 279.368 84.3045ZM135.97 84.3288C135.928 84.3713 135.892 85.7803 135.892 87.4598V90.5135L136.357 90.4754L136.821 90.4373L136.883 88.1095L136.945 85.7818L137.387 86.3308C137.631 86.6329 138.437 87.6528 139.179 88.5973C139.92 89.5419 140.584 90.3553 140.654 90.4048C140.724 90.4544 140.963 90.4957 141.184 90.4968L141.586 90.4987V87.5508C141.586 84.8505 141.568 84.5974 141.37 84.5366C141.251 84.5 141.064 84.4236 140.955 84.3667C140.78 84.2757 140.747 84.4287 140.679 85.633C140.637 86.3863 140.654 87.361 140.718 87.799C140.933 89.2812 140.48 89.1184 138.907 87.1475C137.543 85.4396 136.175 84.1262 135.97 84.3288ZM176.646 84.3929C176.479 84.5932 174.138 89.8561 174.053 90.2227C173.994 90.4739 174.033 90.4987 174.489 90.4987C174.975 90.4987 174.998 90.4796 175.301 89.824L175.612 89.1493H177.173H178.734L179.046 89.824C179.347 90.4747 179.375 90.4987 179.844 90.4987C180.43 90.4987 180.463 90.3385 180.027 89.6005C179.861 89.3186 179.551 88.674 179.338 88.168C179.125 87.662 178.85 87.0272 178.727 86.7573C178.604 86.4875 178.376 85.9631 178.22 85.592C177.861 84.7391 177.76 84.6106 177.447 84.6106C177.307 84.6106 177.099 84.5265 176.984 84.4236C176.817 84.2733 176.75 84.2673 176.646 84.3929ZM186.738 84.8802C186.103 85.0476 185.352 85.8226 185.157 86.5127C184.848 87.6074 185.2 88.8884 185.97 89.4705C186.386 89.785 186.537 89.824 187.336 89.824C188.393 89.824 188.727 89.6375 189.297 88.7293C190.253 87.2046 189.591 85.3149 187.942 84.8687C187.378 84.7158 187.362 84.7159 186.738 84.8802ZM168.891 84.9976C168.862 85.0883 168.807 85.6398 168.767 86.223C168.706 87.1194 168.725 87.2947 168.89 87.3577C168.998 87.3985 169.613 87.432 170.258 87.432H171.43L171.669 86.9107C171.995 86.1977 171.978 85.6809 171.614 85.2615C171.332 84.936 171.251 84.915 170.129 84.8749C169.215 84.8421 168.931 84.8702 168.891 84.9976ZM216.674 84.9552C216.64 85.0097 216.602 86.0662 216.589 87.3029C216.569 89.3138 216.589 89.5639 216.779 89.6692C216.895 89.734 217.45 89.7677 218.011 89.7441C218.894 89.7071 219.091 89.6563 219.473 89.3674C220.043 88.9359 220.559 87.9164 220.559 87.219C220.559 86.2285 219.81 85.2474 218.853 84.984C218.307 84.8338 216.763 84.8133 216.674 84.9552ZM176.747 86.3995C176.542 86.8661 176.264 87.4495 176.128 87.6957C175.827 88.24 175.937 88.3762 176.768 88.489C177.306 88.5621 178.151 88.3866 178.283 88.1746C178.348 88.0708 177.419 85.8554 177.23 85.6635C177.165 85.5965 176.969 85.8946 176.747 86.3995ZM235.283 86.2973C235.127 86.6852 234.869 87.2657 234.708 87.5872L234.416 88.1718L234.76 88.3033C235.171 88.4608 236.475 88.3911 236.666 88.2015C236.765 88.1037 236.657 87.7277 236.271 86.8293C235.98 86.1488 235.701 85.592 235.653 85.592C235.605 85.592 235.438 85.9094 235.283 86.2973ZM28.6136 86.5285C27.605 87.5073 28.2784 89.477 29.7624 89.8888C31.2636 90.3053 32.8039 88.8364 32.3971 87.3762C32.3003 87.0289 32.1557 86.904 31.4728 86.5776C30.7556 86.2348 30.5619 86.195 29.7734 86.2286C29.0645 86.2589 28.8286 86.3199 28.6136 86.5285ZM3.76423 86.5601C3.5746 86.8642 3.95745 87.1434 5.0143 87.4715C6.18242 87.8343 8.06402 88.432 11.059 89.3916C12.0802 89.7187 14.169 90.3819 15.7008 90.8652C17.2326 91.3486 18.7923 91.846 19.1667 91.9707C19.5411 92.0953 21.1008 92.5928 22.6326 93.0762C24.1644 93.5597 26.0836 94.17 26.8974 94.4322C28.4539 94.9339 28.5681 94.9272 28.5722 94.332C28.5737 94.1056 28.5061 94.056 28.1954 94.056C27.8436 94.056 22.9629 92.5336 9.63554 88.2665C3.23395 86.2169 3.864 86.4 3.76423 86.5601ZM30.0567 94.0364C29.8352 94.1097 29.5643 94.7648 29.5643 95.2273C29.5643 96.2466 30.3347 97 31.3767 97C32.3337 97 33.1591 96.1893 33.15 95.2581C33.1452 94.7585 32.9703 94.535 32.4113 94.3141C31.9933 94.1489 30.3152 93.951 30.0567 94.0364Z" fill="white"/>
</svg>
